<?xml version="1.0" encoding="UTF-8" standalone="no"?>
<!-- Created with Inkscape (http://www.inkscape.org/) -->

<svg
   xmlns:dc="http://purl.org/dc/elements/1.1/"
   xmlns:cc="http://creativecommons.org/ns#"
   xmlns:rdf="http://www.w3.org/1999/02/22-rdf-syntax-ns#"
   xmlns:svg="http://www.w3.org/2000/svg"
   xmlns="http://www.w3.org/2000/svg"
   xmlns:sodipodi="http://sodipodi.sourceforge.net/DTD/sodipodi-0.dtd"
   xmlns:inkscape="http://www.inkscape.org/namespaces/inkscape"
   width="199.855"
   height="26.516001"
   viewBox="0 0 52.878299 7.015692"
   version="1.1"
   id="svg447"
   inkscape:version="0.92.0 r15299"
   sodipodi:docname="dnata travel.svg">
  <defs
     id="defs441" />
  <sodipodi:namedview
     id="base"
     pagecolor="#ffffff"
     bordercolor="#666666"
     borderopacity="1.0"
     inkscape:pageopacity="0.0"
     inkscape:pageshadow="2"
     inkscape:zoom="4.0330895"
     inkscape:cx="99.427499"
     inkscape:cy="12.758"
     inkscape:document-units="mm"
     inkscape:current-layer="layer1"
     showgrid="false"
     fit-margin-top="0"
     fit-margin-left="0"
     fit-margin-right="0"
     fit-margin-bottom="0"
     units="px"
     inkscape:window-width="1280"
     inkscape:window-height="744"
     inkscape:window-x="-4"
     inkscape:window-y="-4"
     inkscape:window-maximized="1" />
  <metadata
     id="metadata444">
    <rdf:RDF>
      <cc:Work
         rdf:about="">
        <dc:format>image/svg+xml</dc:format>
        <dc:type
           rdf:resource="http://purl.org/dc/dcmitype/StillImage" />
        <dc:title></dc:title>
      </cc:Work>
    </rdf:RDF>
  </metadata>
  <g
     inkscape:label="Layer 1"
     inkscape:groupmode="layer"
     id="layer1"
     transform="translate(0.6044781,-288.0682)">
    <g
       id="g478"
       transform="matrix(0.26458333,0,0,0.26458333,-0.62352833,287.93591)">
      <path
         id="path449"
         d="m 20.057,7.114 v 3.534 l 3.992,-3.534"
         inkscape:connector-curvature="0"
         style="fill:#5eb130" />
      <path
         id="path451"
         d="M 16.64,7.11 H 9.807 c -4.66,0 -9.235,3.535 -9.235,9.56 0,5.755 4.42,9.846 9.764,9.846 5.824,0 9.72,-4.652 9.72,-10.007 V 10.893 H 16.64 v 5.62 c 0,3.033 -2.203,6.742 -6.3,6.742 -3.467,0 -6.3,-2.95 -6.31,-6.584 0,-2.62 1.825,-6.342 6.63,-6.342 h 5.765 l 3.632,-3.22 V 1 H 16.64 Z M 34.434,6.44 c -3.17,0 -6.145,1.786 -7.1,3.565 V 7.115 H 24.05 V 26.05 h 3.642 V 14.32 c 0,-3.353 3.637,-5.028 5.936,-5.028 3.952,0 4.76,2.614 4.76,5.707 v 11.05 h 3.484 V 14.604 c 0,-6.577 -3.662,-8.163 -7.438,-8.163 z M 71.24,23.327 C 69.562,23.327 69.082,22 69.082,20.64 V 10.215 h 5.785 V 7.11 H 69.082 V 1 h -3.44 v 20.342 c 0,1.928 0.94,5.173 5.107,5.173 1.56,0 3.242,-0.307 4.32,-0.796 l -0.97,-3.066 c -1.288,0.513 -2.213,0.673 -2.86,0.673 z"
         inkscape:connector-curvature="0"
         style="fill:#0088c9" />
      <path
         id="path453"
         d="M 71.24,23.327 C 69.562,23.327 69.082,22 69.082,20.64 V 10.215 h 5.785 V 7.11 H 69.082 V 1 h -3.44 v 20.342 c 0,1.928 0.94,5.173 5.107,5.173 1.56,0 3.242,-0.307 4.32,-0.796 l -0.97,-3.066 c -1.288,0.513 -2.213,0.673 -2.86,0.673 z M 85.576,6.726 h -0.012 c -3.935,0 -7.56,2.11 -7.56,2.11 l 1.467,2.518 c 0,0 2.467,-1.624 6.079,-1.624 5.06,0 5.5,2.314 5.514,3.397 v 0.29 c 0,0 -3.847,0.33 -6.126,0.544 -3.26,0.302 -5.352,1.294 -6.625,2.53 -1.273,1.228 -1.736,2.705 -1.736,3.975 v 0.044 c 0,3.97 3.83,6.004 8.093,6.004 3.333,0 6.51,-1.69 6.51,-1.69 v 1.236 h 3.233 V 12.854 c 0,-2.77 -2.326,-6.128 -8.834,-6.128 z m 5.51,14.424 c -1.173,1.623 -3.887,2.493 -6.607,2.493 -1.294,0 -4.34,-0.512 -4.34,-3.57 0,-2.28 2.75,-3.208 5.024,-3.408 1.6,-0.14 5.92,-0.502 5.92,-0.502 V 21.15 Z M 62.29,26.06 V 12.853 c 0,-3.247 -2.85,-6.128 -8.846,-6.128 -3.81,0 -7.558,2.11 -7.558,2.11 l 1.47,2.518 c 0,0 2.464,-1.623 6.074,-1.623 5.056,0 5.506,2.314 5.51,3.397 v 0.29 c 0,0 -3.843,0.34 -6.118,0.544 -3.652,0.33 -8.36,2.006 -8.36,6.55 0,3.954 3.827,6.004 8.092,6.004 3.328,0 6.504,-1.69 6.504,-1.69 v 1.236 h 3.235 z m -9.928,-2.417 c -1.297,0 -4.336,-0.512 -4.336,-3.57 0,-2.28 2.74,-3.208 5.02,-3.408 1.602,-0.14 5.918,-0.502 5.918,-0.502 l 0.002,4.987 c -1.166,1.622 -3.887,2.493 -6.604,2.493 z"
         inkscape:connector-curvature="0"
         style="fill:#0088c9" />
      <path
         id="path455"
         d="m 104.748,23.327 c -1.678,0 -2.16,-1.327 -2.16,-2.687 V 10.215 h 5.786 V 7.11 h -5.785 V 1 h -3.44 v 20.342 c 0,1.928 0.94,5.173 5.106,5.173 1.562,0 3.243,-0.307 4.32,-0.796 l -0.97,-3.066 c -1.287,0.513 -2.212,0.673 -2.858,0.673 z M 181.462,1 h 3.44 v 25.02 h -3.44 z M 122.3,9.84 c -0.597,-0.04 -1.114,0 -1.87,0 -2.223,0 -5.405,1.43 -5.405,4.73 v 11.507 h -3.418 V 7.104 h 3.18 v 3.08 c 0.794,-2.384 4.015,-3.482 6.122,-3.482 h 1.39 V 9.84 Z m 18.12,3.008 c 0,-3.247 -2.848,-6.128 -8.844,-6.128 -3.81,0 -7.56,2.11 -7.56,2.11 l 1.473,2.518 c 0,0 2.462,-1.624 6.07,-1.624 5.057,0 5.505,2.313 5.51,3.396 v 0.288 l -6.117,0.545 c -3.652,0.33 -8.362,2.005 -8.362,6.545 0,3.954 3.83,6.005 8.094,6.005 3.327,0 6.503,-1.69 6.503,-1.69 v 1.237 h 3.235 V 12.848 Z m -9.926,10.785 c -1.297,0 -4.337,-0.51 -4.337,-3.568 0,-2.28 2.742,-3.206 5.02,-3.405 1.6,-0.14 5.918,-0.502 5.918,-0.502 l 0.003,4.983 c -1.167,1.624 -3.888,2.493 -6.604,2.493 z M 148.86,26.043 141.216,7.1 h 3.742 l 5.965,15.987 6.16,-15.986 h 3.75 l -7.837,18.943 h -4.136 z m 11.9,-9.433 c 0,-5.707 3.396,-9.86 8.986,-9.86 6.483,0 9.856,4.332 8.91,11.2 h -14.46 c 0,3.416 2.464,5.666 6.386,5.666 1.125,0 2.717,0.253 5.98,-1.106 l 1.046,2.447 c -1.202,0.737 -3.922,1.553 -7.338,1.553 -5.2,0 -9.51,-3.728 -9.51,-9.9 z M 164.31,15 h 11.222 c -0.226,-2.837 -1.95,-5.357 -5.785,-5.357 -3.184,0 -5.436,2.638 -5.436,5.356 z"
         inkscape:connector-curvature="0"
         style="fill:#5eb130" />
      <g
         id="g459"
         style="fill:#5eb130">
        <path
           id="path457"
           d="m 195.742,19.83 c 2.03,0 3.685,-1.655 3.685,-3.686 0,-2.032 -1.654,-3.686 -3.687,-3.686 -2.032,0 -3.684,1.653 -3.684,3.686 0,2.03 1.652,3.685 3.686,3.685 z m -0.002,-1.72 c -1.085,0 -1.966,-0.882 -1.966,-1.967 0,-1.085 0.88,-1.967 1.966,-1.967 1.084,0 1.967,0.882 1.967,1.967 0,1.085 -0.883,1.968 -1.967,1.968 z m -0.014,8.07 c 2.317,0 3.7,-1.32 3.7,-3.535 0,-0.7 0,-1.573 -0.508,-2.582 l -0.05,-0.094 -1.72,0.513 0.087,0.13 c 0.326,0.5 0.465,1.53 0.465,1.856 0,1.804 -1.285,2.02 -2.014,2.02 -0.87,0 -1.902,-0.26 -1.902,-2.017 0,-0.268 0.046,-0.942 0.487,-1.822 l 0.092,-0.156 -1.7,-0.43 -0.046,0.08 c -0.357,0.606 -0.578,1.565 -0.578,2.502 0.002,2.212 1.38,3.533 3.688,3.533 z M 193.04,5.962 c -0.613,0.437 -0.938,1 -0.938,2.045 0,1.46 0.88,1.884 0.88,1.884 h -0.71 v 1.79 h 6.968 V 9.89 h -3.965 c -1.226,0 -1.637,-0.702 -1.637,-1.416 0,-1.404 1.37,-1.396 1.695,-1.396 L 199.24,7.076 V 5.48 h -3.945 c -0.472,-0.012 -1.657,0.024 -1.657,-1.424 0,-1.357 1.53,-1.326 1.713,-1.326 h 3.89 V 1 h -4.458 c -0.21,0 -0.938,0.037 -1.604,0.5 -0.715,0.497 -1.077,1.183 -1.077,2.237 0,1.107 0.463,1.844 0.94,2.225 z"
           inkscape:connector-curvature="0" />
      </g>
      <circle
         id="circle461"
         r="1.48"
         cy="24.563"
         cx="188.46899"
         style="fill:#5eb130" />
    </g>
  </g>
</svg>
